<svg width="36" height="38" viewBox="0 0 36 38" fill="none" xmlns="http://www.w3.org/2000/svg">
<path d="M17.8918 3.79048C25.7839 3.79048 32.2052 10.5925 32.2052 18.9524C32.2052 27.3123 25.7839 34.1143 17.8918 34.1143C9.99972 34.1143 3.57836 27.3123 3.57836 18.9524C3.57836 10.5925 9.99972 3.79048 17.8918 3.79048ZM17.8918 0C8.01015 0 0 8.48499 0 18.9524C0 29.4198 8.01015 37.9048 17.8918 37.9048C27.7734 37.9048 35.7836 29.4198 35.7836 18.9524C35.7836 8.48499 27.7734 0 17.8918 0ZM26.8377 17.0572H19.681V9.4762H16.1026V17.0572H8.9459V20.8476H16.1026V28.4286H19.681V20.8476H26.8377V17.0572Z" fill="#FF8000"/>
</svg>
