<svg width="25" height="25" viewBox="0 0 25 25" fill="none" xmlns="http://www.w3.org/2000/svg">
<g clip-path="url(#clip0_57_1355)">
<path d="M22.8021 0.114746H2.1979C1.64536 0.114746 1.11546 0.334239 0.724757 0.72494C0.334056 1.11564 0.114563 1.64554 0.114563 2.19808V22.8022C0.114563 23.3548 0.334056 23.8847 0.724757 24.2754C1.11546 24.6661 1.64536 24.8856 2.1979 24.8856H22.8021C23.3546 24.8856 23.8845 24.6661 24.2752 24.2754C24.6659 23.8847 24.8854 23.3548 24.8854 22.8022V2.19808C24.8854 1.64554 24.6659 1.11564 24.2752 0.72494C23.8845 0.334239 23.3546 0.114746 22.8021 0.114746ZM15.625 22.8022H2.1979V2.19808H15.625V22.8022ZM22 17.9897L20.5208 19.9689C20.4723 20.0336 20.4094 20.0861 20.3371 20.1223C20.2647 20.1584 20.185 20.1772 20.1041 20.1772C20.0233 20.1772 19.9435 20.1584 19.8712 20.1223C19.7989 20.0861 19.736 20.0336 19.6875 19.9689L18.2083 17.9897C18.1503 17.9124 18.1149 17.8204 18.1063 17.724C18.0976 17.6277 18.1159 17.5308 18.1591 17.4443C18.2024 17.3578 18.2689 17.285 18.3512 17.2342C18.4334 17.1833 18.5283 17.1564 18.625 17.1564H21.5833C21.68 17.1564 21.7749 17.1833 21.8571 17.2342C21.9394 17.285 22.0059 17.3578 22.0492 17.4443C22.0924 17.5308 22.1107 17.6277 22.102 17.724C22.0934 17.8204 22.058 17.9124 22 17.9897ZM22.0937 7.29183C22.0498 7.37873 21.9829 7.4519 21.9002 7.50333C21.8176 7.55477 21.7223 7.5825 21.625 7.5835H18.6666C18.5699 7.5835 18.4751 7.55656 18.3928 7.50571C18.3105 7.45486 18.2441 7.3821 18.2008 7.29559C18.1575 7.20907 18.1392 7.11222 18.1479 7.01589C18.1566 6.91955 18.1919 6.82754 18.25 6.75016L19.7291 4.79183C19.78 4.73064 19.8437 4.68139 19.9157 4.64759C19.9877 4.61379 20.0663 4.59627 20.1458 4.59627C20.2254 4.59627 20.3039 4.61379 20.3759 4.64759C20.448 4.68139 20.5116 4.73064 20.5625 4.79183L22.0416 6.76058C22.0964 6.83666 22.1301 6.92588 22.1393 7.01919C22.1484 7.11249 22.1327 7.20656 22.0937 7.29183Z" fill="white"/>
<path d="M4.60417 8.64583H12.5C12.7763 8.64583 13.0412 8.53609 13.2366 8.34074C13.4319 8.14539 13.5417 7.88043 13.5417 7.60417C13.5417 7.3279 13.4319 7.06295 13.2366 6.8676C13.0412 6.67225 12.7763 6.5625 12.5 6.5625H4.60417C4.3279 6.5625 4.06295 6.67225 3.8676 6.8676C3.67225 7.06295 3.5625 7.3279 3.5625 7.60417C3.5625 7.88043 3.67225 8.14539 3.8676 8.34074C4.06295 8.53609 4.3279 8.64583 4.60417 8.64583ZM12.5 11.6042H4.60417C4.3279 11.6042 4.06295 11.7139 3.8676 11.9093C3.67225 12.1046 3.5625 12.3696 3.5625 12.6458C3.5625 12.9221 3.67225 13.1871 3.8676 13.3824C4.06295 13.5778 4.3279 13.6875 4.60417 13.6875H12.5C12.7763 13.6875 13.0412 13.5778 13.2366 13.3824C13.4319 13.1871 13.5417 12.9221 13.5417 12.6458C13.5417 12.3696 13.4319 12.1046 13.2366 11.9093C13.0412 11.7139 12.7763 11.6042 12.5 11.6042ZM12.5 16.6667H4.60417C4.3279 16.6667 4.06295 16.7764 3.8676 16.9718C3.67225 17.1671 3.5625 17.4321 3.5625 17.7083C3.5625 17.9846 3.67225 18.2496 3.8676 18.4449C4.06295 18.6403 4.3279 18.75 4.60417 18.75H12.5C12.7763 18.75 13.0412 18.6403 13.2366 18.4449C13.4319 18.2496 13.5417 17.9846 13.5417 17.7083C13.5417 17.4321 13.4319 17.1671 13.2366 16.9718C13.0412 16.7764 12.7763 16.6667 12.5 16.6667Z" fill="white"/>
</g>
<defs>
<clipPath id="clip0_57_1355">
<rect width="25" height="25" fill="white"/>
</clipPath>
</defs>
</svg>
