<svg width="15" height="23" viewBox="0 0 15 23" fill="none" xmlns="http://www.w3.org/2000/svg">
<path d="M6.71995 18.8481C9.19462 18.8481 10.432 17.9307 10.432 16.0961C10.432 15.3494 10.24 14.7627 9.85595 14.3361C9.49329 13.9094 8.81062 13.5361 7.80795 13.2161L5.18395 12.3521C2.04795 11.3281 0.479952 9.26941 0.479952 6.17608C0.479952 4.38408 1.03462 2.91208 2.14395 1.76008C3.27462 0.586743 5.03462 7.62939e-05 7.42395 7.62939e-05C8.42662 7.62939e-05 9.41862 0.11741 10.4 0.352077C11.3813 0.565411 12.4266 0.917411 13.536 1.40808L12.352 4.70408C11.328 4.29874 10.4533 4.01074 9.72795 3.84008C9.02395 3.64808 8.29862 3.55208 7.55195 3.55208C6.57062 3.55208 5.79195 3.73341 5.21595 4.09608C4.66129 4.43741 4.38395 5.06674 4.38395 5.98408C4.38395 6.66674 4.57595 7.23208 4.95995 7.68008C5.36529 8.10674 6.02662 8.46941 6.94395 8.76808L9.56795 9.63208C11.1466 10.1654 12.3306 10.9441 13.12 11.9681C13.9306 12.9707 14.336 14.3041 14.336 15.9681C14.336 17.8881 13.728 19.4454 12.512 20.6401C11.296 21.8134 9.38662 22.4001 6.78395 22.4001C5.75995 22.4001 4.69329 22.2827 3.58395 22.0481C2.49595 21.7921 1.30129 21.3654 -4.78029e-05 20.7681L1.18395 17.4721C2.37862 17.9841 3.39195 18.3467 4.22395 18.5601C5.07729 18.7521 5.90929 18.8481 6.71995 18.8481Z" fill="white"/>
</svg>
