<svg width="25" height="25" viewBox="0 0 25 25" fill="none" xmlns="http://www.w3.org/2000/svg">
<path d="M12.5 25C10.7708 25 9.14583 24.6717 7.625 24.015C6.10416 23.3583 4.78125 22.4679 3.65625 21.3437C2.53125 20.2196 1.64083 18.8967 0.985001 17.375C0.329168 15.8533 0.000834915 14.2283 1.58228e-06 12.5C-0.000831751 10.7717 0.327501 9.14666 0.985001 7.625C1.6425 6.10333 2.53292 4.78042 3.65625 3.65625C4.77958 2.53208 6.1025 1.64167 7.625 0.985C9.1475 0.328333 10.7725 0 12.5 0C14.2275 0 15.8525 0.328333 17.375 0.985C18.8975 1.64167 20.2204 2.53208 21.3437 3.65625C22.4671 4.78042 23.3579 6.10333 24.0162 7.625C24.6746 9.14666 25.0025 10.7717 25 12.5C24.9975 14.2283 24.6692 15.8533 24.015 17.375C23.3608 18.8967 22.4704 20.2196 21.3437 21.3437C20.2171 22.4679 18.8942 23.3587 17.375 24.0162C15.8558 24.6737 14.2308 25.0017 12.5 25ZM12.5 22.5C15.2917 22.5 17.6562 21.5312 19.5937 19.5937C21.5312 17.6562 22.5 15.2917 22.5 12.5C22.5 9.70833 21.5312 7.34375 19.5937 5.40625C17.6562 3.46875 15.2917 2.5 12.5 2.5C9.70833 2.5 7.34375 3.46875 5.40625 5.40625C3.46875 7.34375 2.5 9.70833 2.5 12.5C2.5 15.2917 3.46875 17.6562 5.40625 19.5937C7.34375 21.5312 9.70833 22.5 12.5 22.5ZM7.5 17.5V13.6562L14.4062 6.78125C14.5937 6.59375 14.8021 6.45833 15.0312 6.375C15.2604 6.29166 15.4896 6.25 15.7187 6.25C15.9687 6.25 16.2083 6.29708 16.4375 6.39125C16.6667 6.48541 16.875 6.62583 17.0625 6.8125L18.2187 7.96875C18.3854 8.15625 18.5158 8.36458 18.61 8.59375C18.7042 8.82291 18.7508 9.05208 18.75 9.28125C18.7492 9.51041 18.7075 9.745 18.625 9.985C18.5425 10.225 18.4071 10.4383 18.2187 10.625L11.3437 17.5H7.5ZM15.7187 10.5L16.875 9.28125L15.7187 8.125L14.5312 9.3125L15.7187 10.5Z" fill="white"/>
</svg>
